HIERARCHY
ROOT Hips
{
	OFFSET -3.958830 18.904000 13.208200
	CHANNELS 6 Xposition Yposition Zposition Zrotation Yrotation Xrotation 
	JOINT LHipJoint
	{
		OFFSET 0.000000 0.000000 0.000000
		CHANNELS 3 Zrotation Yrotation Xrotation
		JOINT LeftUpLeg
		{
			OFFSET 1.800000 -1.400000 0.085000
			CHANNELS 3 Zrotation Yrotation Xrotation
			JOINT LeftLeg
			{
				OFFSET 2.215000 -6.000000 0.000000
				CHANNELS 3 Zrotation Yrotation Xrotation
				JOINT LeftFoot
				{
					OFFSET 2.500000 -6.900000 0.000000
					CHANNELS 3 Zrotation Yrotation Xrotation
					JOINT LeftToeBase
					{
						OFFSET 0.200000 -0.500000 1.950000
						CHANNELS 3 Zrotation Yrotation Xrotation
						End Site
						{
							OFFSET 0.000000 0.000000 0.000000
						}
					}
				}
			}
		}
	}
	JOINT RHipJoint
	{
		OFFSET 0.000000 0.000000 0.000000
		CHANNELS 3 Zrotation Yrotation Xrotation
		JOINT RightUpLeg
		{
			OFFSET -1.800000 -1.400000 0.085000
			CHANNELS 3 Zrotation Yrotation Xrotation
			JOINT RightLeg
			{
				OFFSET -2.215000 -6.000000 0.000000
				CHANNELS 3 Zrotation Yrotation Xrotation
				JOINT RightFoot
				{
					OFFSET -2.500000 -6.900000 0.000000
					CHANNELS 3 Zrotation Yrotation Xrotation
					JOINT RightToeBase
					{
						OFFSET -0.200000 -0.500000 1.950000
						CHANNELS 3 Zrotation Yrotation Xrotation
						End Site
						{
							OFFSET 0.000000 0.000000 0.000000
						}
					}
				}
			}
		}
	}
	JOINT LowerBack
	{
		OFFSET 0.000000 0.000000 0.000000
		CHANNELS 3 Zrotation Yrotation Xrotation
		JOINT Spine
		{
			OFFSET -0.087000 1.940000 -0.288900
			CHANNELS 3 Zrotation Yrotation Xrotation
			JOINT Spine1
			{
				OFFSET 0.000000 1.950000 0.060000
				CHANNELS 3 Zrotation Yrotation Xrotation
				JOINT Neck
				{
					OFFSET 0.000000 0.000000 0.000000
					CHANNELS 3 Zrotation Yrotation Xrotation
					JOINT Neck1
					{
						OFFSET 0.000000 1.600000 0.340000
						CHANNELS 3 Zrotation Yrotation Xrotation
						JOINT Head
						{
							OFFSET 0.000000 1.667000 -0.240000
							CHANNELS 3 Zrotation Yrotation Xrotation
							End Site
							{
								OFFSET 0.000000 0.000000 0.000000
							}
						}
					}
				}
				JOINT LeftShoulder
				{
					OFFSET 0.000000 0.000000 0.000000
					CHANNELS 3 Zrotation Yrotation Xrotation
					JOINT LeftArm
					{
						OFFSET 2.700000 1.550000 -0.730000
						CHANNELS 3 Zrotation Yrotation Xrotation
						JOINT LeftForeArm
						{
							OFFSET 5.450000 0.000000 0.000000
							CHANNELS 3 Zrotation Yrotation Xrotation
							JOINT LeftHand
							{
								OFFSET 3.450000 0.000000 0.000000
								CHANNELS 3 Zrotation Yrotation Xrotation
								JOINT LeftHandIndex1
								{
									OFFSET 0.750000 0.000000 0.000000
									CHANNELS 3 Zrotation Yrotation Xrotation
									End Site
									{
										OFFSET 0.000000 0.000000 0.000000
									}
								}
							}
						}
					}
				}
				JOINT RightShoulder
				{
					OFFSET 0.000000 0.000000 0.000000
					CHANNELS 3 Zrotation Yrotation Xrotation
					JOINT RightArm
					{
						OFFSET -2.700000 1.550000 -0.730000
						CHANNELS 3 Zrotation Yrotation Xrotation
						JOINT RightForeArm
						{
							OFFSET -5.450000 0.000000 0.000000
							CHANNELS 3 Zrotation Yrotation Xrotation
							JOINT RightHand
							{
								OFFSET -3.450000 0.000000 0.000000
								CHANNELS 3 Zrotation Yrotation Xrotation
								JOINT RightHandIndex1
								{
									OFFSET -0.750000 0.000000 0.000000
									CHANNELS 3 Zrotation Yrotation Xrotation
									End Site
									{
										OFFSET 0.000000 0.000000 0.000000
									}
								}
							}
						}
					}
				}
			}
		}
	}
}
MOTION
Frames: 14
Frame Time: 0.016667
0.658740 16.964110 -2.713900 -13.635436 -12.770764 -10.534053 -15.280377 12.181561 2.429749 21.090507 -5.942020 -15.693933 -9.123267 13.049066 42.249473 0.107161 9.131619 1.485448 0.233350 -0.056150 -0.147490 18.657976 -7.518544 5.809606 -4.120287 12.486928 -65.633865 -13.008695 -13.068629 95.948460 -2.959551 -14.534432 0.255956 -0.136170 0.382410 0.081190 -4.048910 -3.932529 -9.035313 15.728306 -19.422783 55.474105 -8.120251 -11.334197 -2.514576 4.114780 -11.527929 -13.506469 -29.635451 15.366683 30.438626 -3.344200 5.073530 -27.560340 -23.842275 -15.548629 3.399953 -29.840885 0.016554 -18.079731 31.934429 -79.225470 -31.248493 -3.158892 2.321487 1.043730 -0.058980 0.030270 0.330940 16.759185 18.349752 11.877615 44.762733 -12.862882 -20.963560 30.023644 58.188204 10.758211 1.550339 -1.333417 -0.376210 0.551720 0.172900 -0.174590 
0.653460 16.924310 -2.685750 -13.009552 -13.845526 -11.089426 -15.301337 12.243835 2.427493 20.944185 -5.648683 -14.623646 -9.760737 13.581592 42.276290 0.107557 9.339737 1.423398 0.229710 -0.071000 -0.135610 18.627655 -7.465049 5.821652 -4.778194 13.014147 -64.483489 -12.478349 -13.657207 96.982496 -3.012283 -14.704179 0.222872 -0.119120 0.411120 0.072950 -3.987320 -4.058995 -9.062466 15.389128 -18.532197 55.388903 -7.559253 -10.832974 -3.262891 3.925009 -11.488643 -13.481789 -30.555384 16.129812 31.590036 -3.515340 4.840580 -26.527680 -25.600056 -15.992049 3.497804 -29.855968 -0.604311 -16.622807 11.224532 -70.866419 -13.215089 -3.200389 2.641646 1.058360 -0.040750 0.020550 0.319510 18.927067 18.720727 11.726091 43.642834 -12.572649 -20.814742 30.979360 59.411230 11.350126 1.528238 -1.301409 -0.407320 0.608200 0.203050 -0.187880 
0.660720 16.843060 -2.608340 -11.128296 -15.963161 -12.059841 -15.328681 12.342823 2.424090 19.737944 -4.957980 -12.931414 -10.852156 14.624188 42.694649 0.228634 9.532607 1.334444 0.415520 0.171980 -0.017620 18.585813 -7.403009 5.839210 -6.753389 13.897783 -62.271224 -11.766892 -14.092136 98.292976 -3.120927 -14.864060 0.164134 0.018990 0.312450 0.055520 -3.912609 -4.207953 -9.081223 15.026669 -16.783043 53.727968 -6.583504 -10.103045 -4.306622 3.301121 -11.388460 -13.654413 -33.902881 18.485191 34.678065 -2.056160 4.316580 -24.272530 -29.177420 -17.036075 3.756955 -31.241584 -2.279673 -13.708642 2.921716 -49.960554 -4.746958 -3.119491 2.789013 1.024530 -0.092730 0.087230 0.354650 23.799499 19.662813 11.248962 39.608382 -11.120701 -19.373275 34.036257 58.744950 12.155073 1.582942 -1.391778 -0.326930 0.591030 0.084700 -0.167970 
0.668000 16.763190 -2.508020 -9.629054 -18.066261 -12.866204 -15.320764 12.427417 2.463598 18.885853 -4.008427 -11.716285 -11.740162 15.900156 43.561114 0.360695 9.833862 1.227712 0.550250 0.343020 0.126850 18.566019 -7.480574 5.733157 -8.519876 14.827650 -58.492862 -10.732808 -14.809004 98.908368 -3.212656 -14.939224 0.140847 0.120010 0.218990 0.030910 -3.922080 -4.144037 -9.063015 15.880394 -15.815548 50.565516 -7.011218 -9.869752 -4.508879 3.171558 -10.493377 -13.986355 -34.728077 20.786188 39.803209 -3.047830 5.381570 -22.399530 -32.592304 -18.156521 4.464958 -31.313076 -2.389222 -8.826697 -0.013315 -29.079176 -2.016383 -3.129839 2.703833 1.013550 -0.126640 0.160770 0.369760 27.301630 20.295499 10.241693 37.937958 -7.517905 -17.918774 37.910930 56.353725 12.906092 1.667488 -1.406386 -0.287300 0.597310 -0.021630 -0.180600 
0.656310 16.669430 -2.389600 -8.411158 -18.868279 -13.983837 -15.302354 12.647029 2.612933 18.498949 -3.163698 -11.207174 -11.945958 17.328114 45.750657 0.486258 10.312985 1.012055 0.594240 0.372900 0.273890 18.516743 -7.728722 5.369078 -9.809738 14.842403 -52.465274 -9.549985 -15.552187 98.320449 -3.233277 -14.854388 0.124769 0.127760 0.076920 0.035190 -3.849557 -4.196169 -9.040328 16.432215 -14.687512 45.843139 -8.041593 -9.547860 -2.549317 4.154814 -8.230237 -15.325113 -30.856251 21.559105 49.743282 -6.286460 7.601550 -19.794010 -34.541687 -20.395742 6.125334 -32.356578 -0.650489 -4.752910 -0.991647 -14.424447 -1.324550 -3.189714 2.535916 1.048600 -0.153620 0.232090 0.294420 27.003588 22.023604 9.909660 41.384426 -3.694860 -18.175015 40.445682 56.960268 13.724751 1.744500 -1.362252 -0.260580 0.525940 -0.056060 -0.260590 
0.615610 16.568660 -2.264900 -7.172970 -18.729076 -13.892224 -15.262453 12.681159 2.810698 18.318225 -2.564593 -12.539835 -12.060969 18.920057 48.585458 0.617200 10.977334 0.798484 0.524630 0.281480 0.268550 18.514140 -7.996032 4.997973 -11.161316 14.537169 -47.289457 -7.117222 -17.010610 96.088827 -3.162718 -14.729327 0.148620 0.088720 0.112730 0.042110 -3.891904 -4.027421 -8.971867 17.847868 -13.754046 39.293294 -9.031288 -8.952819 -0.385696 4.551725 -7.204958 -15.528187 -28.061819 21.367122 54.870618 -8.239870 8.515990 -15.838580 -34.319889 -20.374269 6.904128 -35.509006 0.751490 -2.328043 -1.408787 -5.785623 -1.133294 -3.363314 2.367144 1.034630 -0.091100 0.200550 0.253610 25.758892 21.953636 9.524294 46.063254 -0.138136 -17.878762 44.355235 60.690687 16.551802 1.795902 -1.326428 -0.290810 0.533750 -0.002620 -0.287890 
0.533630 16.481060 -2.125900 -5.604789 -18.998561 -13.230119 -15.229399 12.756398 2.928388 18.195982 -1.377982 -12.895457 -12.708864 20.412024 49.289064 0.682207 11.431751 0.686340 0.410400 0.123010 0.185700 18.507328 -8.288826 4.623842 -11.872635 14.539981 -41.683864 -4.165798 -17.730700 92.128204 -2.967621 -14.374043 0.229952 0.046540 0.233880 0.021310 -3.919982 -3.863587 -8.812515 18.665059 -11.566196 31.792115 -8.344060 -7.577764 2.170258 4.216106 -7.392435 -15.280433 -27.999724 21.838349 56.043893 -7.699520 8.546350 -10.002760 -32.147844 -18.579130 7.327984 -40.319549 2.379639 -1.929185 -1.225051 -3.513731 -1.098866 -3.521308 2.318700 0.998710 0.004460 0.079560 0.225290 24.281623 20.951923 9.370002 49.918287 2.990235 -16.164944 50.612812 65.987529 21.952125 1.852289 -1.321272 -0.374300 0.560740 0.087600 -0.304790 
0.459190 16.456160 -2.037780 -3.332560 -18.659760 -14.290841 -15.168264 13.136325 2.971803 16.749644 -0.326221 -11.375774 -12.506475 20.455633 48.567422 0.665613 11.396535 0.726874 0.309300 -0.030850 0.161200 18.438568 -8.949307 4.044041 -12.764295 13.362408 -33.338600 -0.407017 -17.497967 84.168362 -2.632443 -13.342488 0.458738 -0.029360 0.301050 0.041010 -3.810669 -3.665637 -8.584469 17.275388 -8.586428 27.532827 -6.820342 -5.713201 5.066401 3.983714 -6.814905 -15.632575 -25.100402 20.687714 59.154945 -8.321410 9.050880 -7.328230 -29.324557 -17.766853 8.268208 -42.245073 4.144556 -2.604390 -2.079913 -5.904778 -1.228829 -3.610386 2.259019 1.010280 0.062430 0.033790 0.177270 21.965599 21.186862 9.720024 53.024017 6.835045 -13.723298 56.463808 72.313229 28.277866 1.957737 -1.206657 -0.421960 0.575430 0.171760 -0.333040 
0.415460 16.432120 -1.942730 -1.546289 -18.135072 -14.371580 -15.053888 13.326411 2.990832 15.033105 0.382304 -10.231451 -12.457200 20.146001 47.300120 0.550107 11.293561 0.805958 0.140820 -0.258980 0.051750 18.440727 -9.734656 3.436957 -13.624066 11.433154 -25.766694 2.415750 -16.407454 74.638111 -2.151376 -12.026973 0.799067 -0.105740 0.456740 0.037870 -3.920970 -3.009686 -8.239031 16.963268 -6.058362 22.224531 -5.818600 -4.250056 8.733406 3.554478 -6.737732 -15.448456 -22.020658 18.532555 58.919849 -8.730760 9.079460 -4.686180 -24.721713 -16.138879 8.845510 -43.042141 5.278419 -3.887765 -3.990853 -11.551933 -1.466860 -3.758102 2.161976 1.008390 0.178140 -0.094850 0.131600 18.190633 20.659403 9.593991 55.378140 12.549230 -9.447512 56.551467 77.919053 31.755339 1.963196 -1.064333 -0.540440 0.632810 0.314560 -0.364230 
0.381460 16.432090 -1.850170 -0.026230 -17.743097 -14.072305 -14.985060 13.411908 3.018171 13.518682 0.925455 -9.518460 -12.756129 20.130505 46.223888 0.452163 11.258698 0.840927 -0.033680 -0.486640 -0.048580 18.437242 -10.380873 2.900900 -14.198070 9.475934 -19.644371 3.644511 -14.750412 65.950772 -1.647933 -10.724158 1.153325 -0.171440 0.595690 0.003300 -3.981334 -2.387516 -7.877238 16.057990 -3.478037 17.102338 -3.821069 -2.935462 11.829902 2.880569 -6.616860 -15.487654 -19.698244 17.219749 58.364653 -8.037260 9.265470 -1.142540 -20.001251 -14.638781 9.281588 -42.684694 6.229820 -5.000171 -8.041258 -17.305779 -1.304233 -3.900574 2.103109 0.978110 0.286690 -0.249780 0.053740 14.971019 19.870543 9.564342 55.758392 17.223059 -5.345386 51.100909 85.225331 32.739907 1.847081 -1.043228 -0.662670 0.668930 0.458140 -0.402490 
0.357430 16.479780 -1.789670 1.127515 -17.341977 -13.962683 -14.888806 13.559214 2.965255 11.416347 1.279098 -8.646097 -11.498390 18.931267 45.069470 0.316105 10.909803 0.997222 -0.154380 -0.653180 -0.123440 18.448826 -11.050167 2.459138 -14.468331 7.373767 -14.493262 3.068030 -12.428942 57.622842 -1.202560 -9.356132 1.577981 -0.236040 0.732110 0.007930 -4.090659 -1.777714 -7.503472 15.602563 -1.301751 13.320984 -2.757055 -1.856837 13.879030 2.496372 -6.022540 -15.799124 -17.329373 15.489078 59.185098 -7.069360 8.466440 1.543090 -18.048571 -14.825349 10.007694 -37.723577 8.162176 -5.000708 -13.881429 -21.613481 -0.370478 -3.988254 2.097226 0.963600 0.374710 -0.343910 0.025770 13.916654 20.114263 9.898454 53.131123 20.373025 -3.672975 -147.851572 87.921486 -159.024577 1.533715 -1.162938 -0.737820 0.717360 0.558140 -0.404330 
0.326730 16.555310 -1.781040 1.211317 -17.434082 -14.005343 -14.829768 13.651959 2.902870 10.654596 1.617511 -8.294093 -10.285865 17.978399 44.242704 0.122710 10.620017 1.066032 -0.208240 -0.742860 -0.152030 18.461249 -11.452981 2.228486 -13.396880 5.997837 -10.528507 2.207298 -10.576550 51.206661 -0.909556 -8.315874 1.913336 -0.245780 0.768610 0.001480 -4.165022 -1.373900 -7.246330 15.738482 0.257036 11.612077 -2.252888 -0.985257 15.461590 2.511846 -5.712983 -15.986276 -16.552055 14.407334 60.014530 -6.776080 7.314220 1.526340 -16.472408 -15.156733 10.430063 -32.435618 9.499891 -4.496408 -18.758273 -24.927534 0.815382 -4.016742 2.110140 1.004050 0.398190 -0.391170 -0.019030 12.428039 20.298307 10.029572 49.551193 24.770134 5.859996 -104.782831 75.267892 -96.678321 2.011552 4.215024 -0.805230 0.742390 0.634360 -0.439020 
0.298210 16.681880 -1.802500 1.020452 -17.334483 -13.954939 -14.736143 13.745942 2.851979 9.124471 1.384995 -9.032384 -7.753628 16.369557 44.564400 0.015972 10.165127 1.232315 -0.197650 -0.712590 -0.181230 18.496608 -11.754608 2.169274 -12.772439 4.757316 -8.217285 1.905710 -9.547390 46.060349 -0.745094 -7.502082 2.222750 -0.225490 0.779430 -0.079520 -4.318903 -1.105012 -7.138527 16.516415 1.085531 11.367243 -2.168654 -0.372699 15.799657 2.305262 -6.342122 -17.169715 -18.779760 14.520768 61.800291 -4.053310 4.739540 2.107870 -16.055975 -16.337954 11.141621 -27.921470 11.862916 -4.734897 -17.814858 -30.754929 1.624161 -3.891600 2.126744 1.026580 0.348290 -0.392440 0.020520 12.580207 22.273750 11.184609 44.104026 26.043354 6.415746 -111.107659 68.549855 -98.929304 1.773956 1.436032 -0.838300 0.820860 0.611540 -0.417620 
0.272100 16.816870 -1.862760 1.343964 -16.886002 -14.014528 -14.807454 13.890142 2.942297 7.261134 0.645796 -12.011536 -4.826944 15.204083 47.481935 -0.071869 10.147450 1.152058 -0.143640 -0.698640 -0.104400 18.380699 -11.693223 2.219538 -13.533511 4.640919 -8.271459 3.334676 -10.068028 44.433576 -0.757457 -7.277956 2.251636 -0.239520 0.672480 -0.060210 -4.008573 -1.468537 -7.358840 15.039092 1.838643 13.444519 -1.123414 0.699342 14.625056 2.684212 -6.180240 -18.466307 -20.308345 15.136366 66.110757 -3.302020 3.561580 -0.587980 -16.099335 -17.550155 11.680545 -24.232037 13.359929 -4.488068 -16.785313 -33.545782 1.839827 -3.771297 2.135445 1.165700 0.244640 -0.297860 -0.014230 12.066779 24.079705 11.900538 39.103144 26.220605 4.868092 -112.946748 64.393422 -95.909375 1.632305 0.832420 -0.824480 0.806970 0.613420 -0.462180 
